<svg width="128" height="128" viewBox="0 0 128 128" xmlns="http://www.w3.org/2000/svg">
  <!-- Background -->
  <defs>
    <linearGradient id="bgGradient" x1="0%" y1="0%" x2="100%" y2="100%">
      <stop offset="0%" style="stop-color:#0366d6;stop-opacity:1" />
      <stop offset="100%" style="stop-color:#0256c7;stop-opacity:1" />
    </linearGradient>
    <filter id="shadow" x="-50%" y="-50%" width="200%" height="200%">
      <feDropShadow dx="0" dy="2" stdDeviation="3" flood-opacity="0.2"/>
    </filter>
  </defs>
  
  <!-- Rounded rectangle background -->
  <rect width="128" height="128" rx="24" ry="24" fill="url(#bgGradient)"/>
  
  <!-- GitHub-style octagon border (subtle) -->
  <path d="M 24 8 L 104 8 L 120 24 L 120 104 L 104 120 L 24 120 L 8 104 L 8 24 Z" 
        fill="none" 
        stroke="rgba(255,255,255,0.1)" 
        stroke-width="2"/>
  
  <!-- Upload arrow icon -->
  <g transform="translate(64, 64)" filter="url(#shadow)">
    <!-- Arrow pointing up -->
    <path d="M 0 -20 L 12 -8 L 6 -8 L 6 10 L -6 10 L -6 -8 L -12 -8 Z" 
          fill="white" 
          transform="scale(2.2)"/>
    
    <!-- Cloud base -->
    <ellipse cx="0" cy="22" rx="28" ry="10" fill="white" opacity="0.9"/>
    
    <!-- Cloud bubbles -->
    <circle cx="-18" cy="18" r="12" fill="white" opacity="0.9"/>
    <circle cx="18" cy="18" r="12" fill="white" opacity="0.9"/>
    <circle cx="0" cy="15" r="15" fill="white" opacity="0.9"/>
  </g>
  
  <!-- GitHub mark in corner -->
  <g transform="translate(100, 28) scale(0.6)">
    <path d="M12 0C5.374 0 0 5.373 0 12c0 5.302 3.438 9.8 8.207 11.387.599.111.793-.261.793-.577v-2.234c-3.338.726-4.033-1.416-4.033-1.416-.546-1.387-1.333-1.756-1.333-1.756-1.089-.745.083-.729.083-.729 1.205.084 1.839 1.237 1.839 1.237 1.07 1.834 2.807 1.304 3.492.997.107-.775.418-1.305.762-1.604-2.665-.305-5.467-1.334-5.467-5.931 0-1.311.469-2.381 1.236-3.221-.124-.303-.535-1.524.117-3.176 0 0 1.008-.322 3.301 1.23A11.509 11.509 0 0112 5.803c1.02.005 2.047.138 3.006.404 2.291-1.552 3.297-1.23 3.297-1.23.653 1.653.242 2.874.118 3.176.77.84 1.235 1.911 1.235 3.221 0 4.609-2.807 5.624-5.479 5.921.43.372.823 1.102.823 2.222v3.293c0 .319.192.694.801.576C20.566 21.797 24 17.3 24 12c0-6.627-5.373-12-12-12z" 
          fill="white" 
          opacity="0.8"/>
  </g>
</svg>
